<?xml version="1.0" encoding="iso-8859-1"?>
<!-- Generator: Adobe Illustrator 19.0.0, SVG Export Plug-In . SVG Version: 6.00 Build 0)  -->
<svg version="1.1" id="Capa_1" xmlns="http://www.w3.org/2000/svg" xmlns:xlink="http://www.w3.org/1999/xlink" x="0px" y="0px"
	 viewBox="0 0 512.001 512.001" style="enable-background:new 0 0 512.001 512.001;" xml:space="preserve">
<path style="fill:#00C3FF;" d="M422.836,230.128h-30.291c-0.962,0-1.782-0.681-1.974-1.624
	c-3.559-17.509-10.444-33.81-19.974-48.207c-0.531-0.802-0.432-1.863,0.249-2.543l22.852-22.853c3.258-3.258,3.258-8.541,0-11.799
	l-24.795-24.796c-3.258-3.258-8.541-3.258-11.8,0l-22.852,22.853c-0.68,0.68-1.741,0.78-2.543,0.249
	c-14.398-9.532-30.698-16.415-48.208-19.974c-0.943-0.192-1.623-1.012-1.623-1.974V89.169c0-5.725-4.641-10.366-10.366-10.366
	h-31.021c-5.725,0-10.366,4.641-10.366,10.366v30.291c0,0.962-0.681,1.782-1.623,1.974c-17.51,3.559-33.81,10.443-48.208,19.974
	c-0.802,0.531-1.863,0.432-2.543-0.249l-21.423-21.423c-4.049-4.049-10.611-4.049-14.66,0l-21.935,21.935
	c-4.048,4.048-4.048,10.611,0,14.659l21.423,21.423c0.68,0.68,0.78,1.741,0.249,2.543c-9.531,14.398-16.415,30.698-19.974,48.207
	c-0.192,0.943-1.011,1.624-1.974,1.624H89.164c-5.725,0-10.366,4.641-10.366,10.366v31.021c0,5.725,4.641,10.366,10.366,10.366
	h30.292c0.962,0,1.782,0.681,1.974,1.624c3.559,17.51,10.444,33.81,19.974,48.208c0.531,0.802,0.432,1.863-0.249,2.543
	l-21.423,21.423c-4.048,4.048-4.048,10.611,0,14.659l23.364,23.364c3.258,3.258,8.542,3.258,11.799,0l22.852-22.852
	c0.68-0.68,1.741-0.779,2.543-0.249c14.398,9.531,30.698,16.415,48.208,19.973c0.943,0.192,1.623,1.012,1.623,1.974v30.291
	c0,5.725,4.641,10.366,10.366,10.366h31.02c5.725,0,10.366-4.641,10.366-10.366v-30.292c0-0.962,0.681-1.782,1.623-1.974
	c17.51-3.559,33.81-10.443,48.208-19.973c0.802-0.531,1.863-0.432,2.543,0.249l22.852,22.852c3.258,3.258,8.542,3.258,11.8,0
	l23.364-23.364c4.048-4.049,4.049-10.611,0-14.66l-21.423-21.423c-0.68-0.68-0.78-1.741-0.249-2.543
	c9.531-14.398,16.415-30.698,19.974-48.208c0.192-0.943,1.011-1.624,1.974-1.624h30.291c5.725,0,10.366-4.641,10.366-10.366v-31.02
	C433.201,234.769,428.56,230.128,422.836,230.128z"/>
<g>
	<path style="fill:#00AAF0;" d="M141.155,177.754c0.68,0.68,0.78,1.741,0.249,2.543c-9.531,14.398-16.415,30.698-19.974,48.207
		c-0.192,0.943-1.011,1.624-1.974,1.624h19.978c0.962,0,1.782-0.681,1.974-1.624c3.559-17.509,10.444-33.81,19.974-48.207
		c0.531-0.802,0.432-1.863-0.249-2.543l-21.423-21.423c-4.048-4.048-4.048-10.611,0-14.659l19.276-19.276l-2.659-2.659
		c-4.049-4.049-10.611-4.049-14.66,0l-21.935,21.935c-4.048,4.048-4.048,10.611,0,14.659L141.155,177.754z"/>
	<path style="fill:#00AAF0;" d="M139.711,370.337c-4.048-4.048-4.048-10.611,0-14.659l21.423-21.423
		c0.68-0.68,0.78-1.741,0.249-2.543c-9.531-14.398-16.415-30.698-19.974-48.208c-0.192-0.943-1.011-1.624-1.974-1.624h-19.978
		c0.962,0,1.782,0.681,1.974,1.624c3.559,17.51,10.444,33.81,19.974,48.208c0.531,0.802,0.432,1.863-0.249,2.543l-21.423,21.423
		c-4.048,4.048-4.048,10.611,0,14.659l23.364,23.364c3.258,3.258,8.542,3.258,11.799,0l4.09-4.09L139.711,370.337z"/>
	<path style="fill:#00AAF0;" d="M98.777,271.515v-31.021c0-5.725,4.641-10.366,10.366-10.366H89.164
		c-5.725,0-10.366,4.641-10.366,10.366v31.021c0,5.725,4.641,10.366,10.366,10.366h19.978
		C103.418,281.88,98.777,277.24,98.777,271.515z"/>
	<circle style="fill:#00AAF0;" cx="255.999" cy="256.01" r="91.62"/>
</g>
<path style="fill:#039ADD;" d="M184.044,256.004c0-47.276,35.811-86.185,81.785-91.089c-3.229-0.345-6.509-0.525-9.83-0.525
	c-50.598,0-91.616,41.017-91.616,91.615s41.018,91.616,91.616,91.616c3.321,0,6.6-0.181,9.83-0.525
	C219.855,342.189,184.044,303.28,184.044,256.004z"/>
<path style="fill:#5BDDFC;" d="M302.846,223.481l-42.102-24.307c-2.935-1.694-6.552-1.694-9.488,0l-42.102,24.307
	c-2.936,1.694-4.743,4.827-4.743,8.216v48.615c0,3.389,1.808,6.521,4.743,8.216l42.102,24.307c2.936,1.694,6.552,1.694,9.488,0
	l42.102-24.307c2.935-1.694,4.743-4.827,4.743-8.216v-48.616C307.589,228.308,305.781,225.176,302.846,223.481z M256,272.907
	c-9.335,0-16.902-7.568-16.902-16.902s7.568-16.902,16.902-16.902s16.902,7.568,16.902,16.902S265.335,272.907,256,272.907z"/>
<path style="fill:#00C3FF;" d="M229.133,288.528c-2.936-1.694-4.743-4.827-4.743-8.216v-48.616c0-3.389,1.808-6.521,4.743-8.216
	l36.857-21.279l-5.245-3.029c-2.935-1.694-6.552-1.694-9.488,0l-42.102,24.307c-2.936,1.694-4.743,4.827-4.743,8.216v48.615
	c0,3.389,1.808,6.521,4.743,8.216l42.102,24.307c2.936,1.694,6.552,1.694,9.488,0l5.245-3.029L229.133,288.528z"/>
<path style="fill:#FFC850;" d="M464.501,435.164h-26.067c47.265-48.106,73.28-111.63,73.281-179.16
	c0-184.005-189.33-308.388-358.483-234.216c-3.789,1.662-5.515,6.08-3.853,9.869c1.662,3.79,6.081,5.515,9.869,3.853
	c91.515-40.129,196.307-20.396,266.976,50.272c93.3,93.3,93.84,244.75,1.655,338.745v-25.986c0-4.138-3.354-7.492-7.492-7.492
	c-4.137,0-7.492,3.353-7.492,7.492v44.115c0,4.138,3.354,7.492,7.492,7.492h44.116c4.137,0,7.492-3.353,7.492-7.492
	C471.994,438.518,468.638,435.164,464.501,435.164z"/>
<path style="fill:#FF5050;" d="M365.137,479.127c-1.704-3.769-6.143-5.444-9.912-3.74c-90.626,40.969-198.936,21.348-269.446-49.162
	c-93.86-93.86-93.86-246.583,0-340.443c0.063-0.063,0.128-0.125,0.191-0.188v26.025c0,4.137,3.354,7.492,7.492,7.492
	s7.492-3.354,7.492-7.492V67.505c0-4.137-3.354-7.492-7.492-7.492H49.346c-4.137,0-7.492,3.354-7.492,7.492
	c0,4.137,3.354,7.492,7.492,7.492h26.031c-0.064,0.064-0.131,0.127-0.194,0.191C26.885,123.485,0.287,187.701,0.287,256.004
	C0.288,441.36,192.114,565.571,361.396,489.04C365.167,487.336,366.842,482.898,365.137,479.127z"/>
<g>
	<path style="fill:#00AAF0;" d="M250.102,89.17c0-5.725,4.641-10.366,10.366-10.366h-19.978c-5.725,0-10.366,4.641-10.366,10.366
		v30.291c0,0.962-0.681,1.782-1.623,1.974l16.237-1.483c3.039-0.278,5.365-2.826,5.365-5.878V89.17H250.102z"/>
	<path style="fill:#00AAF0;" d="M250.102,422.839v-23.667c0-3.752-2.86-6.885-6.597-7.227l-15.005-1.37
		c0.943,0.192,1.623,1.012,1.623,1.974v30.291c0,5.725,4.641,10.366,10.366,10.366h19.978
		C254.744,433.206,250.102,428.565,250.102,422.839z"/>
</g>
<g>
</g>
<g>
</g>
<g>
</g>
<g>
</g>
<g>
</g>
<g>
</g>
<g>
</g>
<g>
</g>
<g>
</g>
<g>
</g>
<g>
</g>
<g>
</g>
<g>
</g>
<g>
</g>
<g>
</g>
</svg>
